<?xml version="1.0" standalone="no"?>
<!DOCTYPE svg PUBLIC "-//W3C//DTD SVG 20010904//EN"
 "http://www.w3.org/TR/2001/REC-SVG-20010904/DTD/svg10.dtd">
<svg version="1.0" xmlns="http://www.w3.org/2000/svg"
 width="11300.000000pt" height="11300.000000pt" viewBox="0 0 11300.000000 11300.000000"
 preserveAspectRatio="xMidYMid meet">

<g transform="translate(0.000000,11300.000000) scale(0.100000,-0.100000)"
fill="#4f46e5" stroke="none">
<path d="M56910 102610 c-260 -49 -535 -329 -752 -765 -391 -783 -664 -2054
-767 -3570 -36 -525 -47 -1491 -23 -1975 99 -1945 440 -3457 959 -4244 66
-100 114 -158 202 -246 173 -171 290 -232 456 -234 177 -2 299 58 476 234 89
89 136 146 206 251 470 712 809 2097 928 3789 54 782 54 1703 -1 2490 -124
1791 -500 3244 -1010 3905 -80 105 -224 240 -305 288 -114 67 -261 98 -369 77z"/>
<path d="M30565 95134 c-228 -35 -390 -187 -474 -444 -201 -624 41 -1853 651
-3300 348 -826 883 -1843 1349 -2565 25 -38 70 -108 100 -155 333 -521 783
-1132 1168 -1585 393 -463 865 -925 1206 -1181 321 -242 622 -398 866 -449 87
-19 244 -21 312 -6 456 105 599 744 396 1779 -108 552 -328 1233 -627 1947
-302 718 -748 1589 -1148 2242 -53 87 -106 174 -117 193 -155 262 -575 878
-836 1225 -365 486 -669 843 -1025 1204 -614 624 -1140 987 -1556 1076 -73 15
-219 26 -265 19z"/>
<path d="M79255 95130 c-434 -60 -995 -434 -1645 -1096 -570 -580 -1135 -1305
-1700 -2179 -195 -302 -492 -800 -620 -1040 -30 -55 -80 -147 -112 -205 -79
-142 -388 -759 -473 -945 -512 -1123 -814 -2070 -911 -2865 -24 -197 -25 -576
-1 -710 41 -236 109 -392 218 -502 94 -94 175 -132 309 -148 587 -67 1555 671
2601 1985 944 1186 1858 2761 2431 4190 505 1260 719 2323 592 2943 -61 301
-206 492 -421 555 -67 20 -192 28 -268 17z"/>
<path d="M45900 91990 c-217 -37 -615 -104 -885 -149 -269 -44 -512 -88 -540
-96 -27 -8 -133 -33 -235 -55 -880 -191 -1769 -592 -2518 -1137 -296 -215
-510 -396 -795 -673 -769 -746 -1406 -1748 -1774 -2790 -76 -218 -86 -246
-137 -420 -153 -524 -248 -1043 -298 -1625 -20 -234 -17 -1022 5 -1255 31
-331 69 -598 122 -870 42 -212 44 -240 26 -249 -14 -8 -144 -102 -291 -211
-30 -22 -80 -58 -110 -80 -91 -64 -144 -104 -163 -121 -9 -8 -42 -33 -73 -55
-31 -21 -81 -59 -112 -84 -32 -25 -95 -74 -142 -110 -47 -35 -128 -98 -180
-139 -52 -42 -102 -81 -110 -88 -104 -80 -336 -268 -450 -364 -63 -53 -169
-142 -235 -198 -66 -55 -151 -128 -190 -162 -38 -34 -97 -84 -130 -111 -74
-62 -187 -162 -279 -248 -39 -36 -88 -81 -110 -100 -22 -19 -47 -42 -56 -50
-9 -8 -65 -60 -126 -115 -60 -54 -116 -106 -125 -115 -8 -8 -60 -55 -115 -105
-133 -121 -1538 -1525 -1695 -1694 -68 -74 -129 -139 -134 -145 -20 -21 -240
-263 -316 -347 -42 -46 -90 -98 -105 -115 -47 -49 -149 -166 -180 -204 -15
-19 -46 -55 -69 -81 -22 -25 -71 -81 -110 -124 -38 -43 -113 -131 -165 -194
-52 -64 -131 -159 -175 -212 -44 -53 -111 -135 -150 -183 -38 -48 -85 -103
-103 -124 -18 -20 -47 -57 -64 -82 -18 -25 -68 -90 -112 -145 -93 -115 -82
-100 -148 -190 -29 -38 -72 -96 -97 -127 -26 -31 -64 -82 -86 -113 -22 -30
-51 -68 -65 -84 -14 -16 -35 -44 -48 -62 -12 -19 -60 -85 -105 -146 -78 -108
-192 -265 -322 -448 -80 -112 -194 -277 -208 -302 -14 -24 -176 -263 -189
-278 -5 -5 -41 -59 -80 -120 -40 -60 -94 -143 -120 -183 -26 -40 -48 -75 -48
-78 0 -6 -82 -126 -91 -134 -4 -3 -16 -25 -29 -49 -12 -24 -36 -65 -54 -90
-18 -25 -56 -86 -86 -136 -30 -49 -73 -119 -96 -155 -23 -36 -51 -83 -63 -105
-12 -22 -46 -80 -77 -130 -30 -49 -61 -100 -67 -112 -11 -21 -80 -139 -102
-175 -43 -72 -108 -184 -138 -238 -19 -36 -53 -96 -76 -135 -22 -38 -51 -90
-64 -115 -12 -25 -34 -65 -49 -90 -31 -55 -77 -141 -153 -285 -32 -60 -61
-114 -66 -120 -4 -5 -95 -185 -203 -400 -108 -214 -201 -395 -206 -402 -6 -7
-10 -15 -10 -18 0 -6 -34 -80 -105 -230 -112 -236 -154 -325 -212 -455 -90
-201 -92 -206 -168 -380 -37 -85 -78 -178 -91 -207 -13 -28 -24 -54 -24 -58 0
-3 -27 -68 -60 -144 -33 -76 -60 -142 -60 -146 0 -3 -11 -31 -25 -61 -14 -30
-25 -57 -25 -61 0 -4 -13 -36 -29 -72 -16 -36 -48 -115 -71 -176 -22 -60 -47
-123 -55 -140 -8 -16 -24 -55 -34 -85 -11 -30 -34 -93 -51 -140 -17 -47 -38
-105 -46 -130 -18 -51 -23 -66 -53 -132 -12 -26 -21 -54 -21 -62 0 -8 -10 -36
-21 -63 -12 -26 -30 -73 -40 -103 -10 -30 -45 -134 -79 -230 -33 -96 -71 -209
-84 -250 -13 -41 -31 -93 -39 -115 -9 -22 -34 -101 -57 -175 -23 -74 -46 -143
-51 -152 -4 -9 -17 -50 -28 -90 -11 -40 -31 -107 -44 -148 -43 -131 -76 -244
-83 -280 -3 -19 -12 -46 -19 -60 -7 -14 -20 -56 -30 -95 -9 -38 -26 -94 -36
-123 -11 -29 -25 -81 -32 -115 -13 -59 -36 -145 -78 -287 -25 -87 -66 -247
-89 -345 -10 -44 -27 -111 -38 -150 -11 -38 -24 -92 -30 -120 -19 -88 -72
-306 -87 -359 -8 -28 -19 -82 -25 -121 -6 -38 -18 -89 -26 -113 -8 -24 -21
-85 -29 -135 -8 -51 -22 -114 -30 -142 -9 -27 -20 -81 -26 -120 -6 -38 -21
-113 -34 -165 -12 -52 -26 -122 -29 -154 -4 -33 -15 -93 -26 -135 -11 -42 -24
-113 -30 -157 -5 -45 -16 -108 -24 -140 -8 -33 -20 -95 -26 -139 -10 -73 -37
-225 -61 -348 -5 -26 -9 -67 -9 -90 0 -23 -9 -82 -20 -131 -11 -48 -25 -138
-31 -200 -6 -61 -19 -159 -30 -219 -11 -59 -24 -158 -29 -220 -10 -109 -22
-200 -41 -301 -5 -26 -14 -116 -20 -200 -5 -83 -16 -191 -24 -241 -8 -49 -19
-164 -25 -255 -6 -91 -17 -235 -25 -320 -31 -322 -35 -372 -46 -655 -6 -159
-16 -375 -23 -480 l-12 -190 -8 90 c-4 50 -9 97 -10 105 -2 8 -4 -743 -3
-1670 0 -927 1 -1674 3 -1660 2 14 6 60 9 103 4 43 8 77 10 75 1 -2 10 -154
19 -338 9 -184 21 -427 26 -540 6 -113 19 -290 30 -395 10 -104 24 -266 30
-360 5 -93 17 -208 25 -254 8 -46 19 -152 25 -235 5 -83 18 -203 29 -266 11
-63 23 -155 26 -205 4 -49 17 -153 30 -230 13 -77 29 -189 35 -250 6 -60 17
-137 25 -170 8 -33 19 -103 25 -156 5 -53 20 -152 34 -220 13 -68 29 -162 35
-209 6 -47 18 -112 27 -145 8 -33 20 -98 25 -145 5 -47 18 -119 29 -161 11
-42 22 -103 26 -135 3 -33 15 -91 25 -130 10 -39 23 -105 30 -145 6 -41 20
-108 31 -149 11 -41 26 -111 34 -155 7 -44 22 -114 33 -155 11 -41 26 -109 35
-150 30 -144 64 -291 79 -338 9 -26 21 -76 27 -112 6 -36 20 -92 30 -125 10
-33 24 -87 30 -120 7 -33 20 -87 30 -120 17 -55 47 -166 72 -270 6 -22 23 -83
39 -135 16 -52 29 -101 29 -109 0 -7 14 -59 31 -115 17 -55 44 -146 60 -201
16 -55 40 -136 53 -180 14 -44 31 -102 39 -130 8 -27 22 -70 30 -95 9 -25 32
-99 52 -165 20 -66 44 -142 54 -170 10 -27 39 -117 65 -200 26 -82 53 -161 60
-175 7 -14 19 -47 25 -75 7 -27 19 -63 26 -80 7 -16 32 -86 55 -155 23 -69 52
-150 65 -180 12 -30 30 -77 40 -105 94 -268 226 -614 333 -870 25 -60 53 -130
63 -155 15 -39 69 -170 167 -405 16 -38 40 -95 54 -125 31 -66 54 -120 98
-220 41 -96 60 -137 105 -235 36 -79 47 -102 159 -338 31 -65 56 -121 56 -124
0 -15 421 -845 541 -1068 21 -38 47 -88 58 -110 11 -22 40 -76 64 -120 24 -44
61 -111 82 -150 20 -38 43 -77 49 -85 7 -8 17 -27 24 -42 6 -15 45 -85 87
-157 41 -72 75 -133 75 -137 0 -3 14 -26 30 -51 17 -24 40 -63 51 -86 12 -23
27 -49 34 -57 7 -8 26 -40 42 -70 17 -30 56 -95 86 -145 31 -49 67 -110 80
-135 14 -25 42 -72 64 -105 43 -66 65 -102 114 -185 31 -52 68 -112 164 -260
23 -36 67 -103 97 -150 30 -47 104 -159 164 -249 60 -90 114 -171 119 -179 23
-36 159 -235 271 -397 35 -49 89 -128 121 -175 31 -47 60 -87 63 -90 6 -5 31
-39 190 -259 52 -72 124 -169 160 -215 36 -47 115 -151 175 -231 61 -81 142
-186 180 -234 39 -47 83 -104 99 -126 16 -22 77 -98 136 -170 58 -71 130 -161
160 -200 29 -38 68 -86 86 -105 53 -58 116 -133 164 -195 25 -32 54 -68 65
-80 11 -12 35 -39 54 -61 19 -21 62 -70 97 -109 34 -38 102 -117 150 -176 49
-58 109 -127 134 -154 25 -27 74 -81 110 -120 36 -39 108 -117 160 -174 218
-239 317 -346 435 -469 134 -140 1258 -1264 1382 -1382 144 -138 365 -344 407
-381 22 -19 49 -43 61 -54 11 -11 50 -47 85 -79 36 -32 94 -86 130 -119 125
-115 155 -143 220 -197 36 -30 67 -57 70 -60 3 -3 34 -30 70 -60 36 -30 67
-57 70 -60 3 -3 39 -35 80 -70 41 -36 77 -68 80 -71 3 -4 41 -35 85 -70 92
-73 188 -153 223 -187 13 -13 54 -46 91 -74 36 -29 125 -99 196 -158 72 -58
148 -119 170 -135 22 -16 79 -61 126 -100 47 -38 114 -90 148 -114 33 -24 74
-56 90 -70 16 -14 55 -44 86 -66 31 -22 80 -59 108 -82 29 -23 84 -63 122 -89
39 -27 93 -67 120 -89 28 -23 79 -61 115 -85 36 -24 79 -54 95 -67 17 -12 39
-30 50 -38 22 -17 148 -106 270 -189 44 -31 114 -79 157 -108 67 -47 289 -199
358 -245 34 -23 195 -128 300 -195 47 -30 117 -75 155 -100 70 -45 193 -122
301 -188 31 -19 90 -56 130 -82 40 -27 75 -48 77 -48 2 0 64 -37 138 -81 74
-45 159 -95 189 -112 30 -16 62 -35 70 -42 8 -7 34 -22 57 -34 23 -11 62 -34
86 -51 25 -16 48 -30 53 -30 4 0 28 -13 53 -29 43 -27 131 -76 230 -127 24
-13 48 -27 55 -32 11 -10 95 -56 226 -125 41 -21 104 -56 140 -77 36 -20 85
-47 110 -59 25 -13 126 -65 225 -117 193 -100 820 -414 828 -414 3 0 68 -30
144 -66 76 -36 156 -74 178 -84 63 -29 216 -100 260 -120 22 -11 76 -35 120
-54 44 -18 123 -53 175 -76 52 -24 120 -53 150 -65 30 -13 93 -40 140 -60 47
-20 101 -42 120 -49 19 -8 55 -23 80 -34 43 -20 114 -49 191 -77 20 -8 66 -28
103 -44 36 -17 71 -31 77 -31 5 0 29 -9 52 -19 39 -18 67 -29 222 -86 33 -12
74 -28 90 -35 58 -24 161 -62 220 -81 32 -11 84 -30 115 -43 30 -13 76 -30
103 -40 119 -41 147 -51 217 -76 102 -37 121 -43 308 -106 90 -30 180 -61 200
-68 20 -8 91 -30 157 -51 66 -20 158 -50 205 -65 47 -15 132 -42 190 -60 58
-17 125 -38 150 -47 25 -8 69 -21 99 -28 50 -13 102 -28 331 -100 41 -12 95
-26 120 -30 25 -4 53 -12 63 -17 20 -10 206 -61 324 -87 45 -11 108 -28 140
-39 32 -11 78 -23 103 -27 25 -3 72 -15 105 -26 33 -10 94 -25 135 -33 41 -8
111 -24 155 -36 166 -44 272 -69 340 -80 39 -6 89 -17 111 -25 23 -8 84 -21
135 -30 52 -9 123 -24 159 -35 36 -10 99 -24 140 -30 41 -6 109 -19 150 -29
41 -11 102 -22 135 -26 33 -4 94 -15 135 -26 41 -11 111 -23 155 -29 44 -5
118 -18 164 -29 47 -11 112 -23 145 -27 34 -3 127 -19 209 -35 81 -16 169 -29
195 -29 26 0 87 -9 135 -20 48 -11 149 -26 225 -35 75 -8 172 -22 215 -30 42
-8 146 -21 230 -29 83 -9 190 -22 237 -31 47 -8 150 -19 230 -25 80 -6 206
-20 280 -31 74 -10 223 -24 330 -29 107 -5 202 -11 210 -14 35 -12 374 -38
615 -46 143 -5 351 -15 463 -21 202 -12 267 -27 130 -31 -46 -1 -18 -4 72 -8
190 -10 2873 -10 3055 -1 81 5 112 8 73 9 -38 1 -68 6 -68 10 0 11 96 17 435
32 396 16 621 30 745 46 63 7 202 19 307 24 106 6 234 18 285 26 51 8 176 21
277 29 100 8 222 22 270 30 47 9 155 22 238 30 84 9 188 22 230 31 43 8 141
22 218 30 77 8 166 21 197 30 32 8 102 19 157 24 54 5 154 21 221 35 68 14
136 25 152 25 16 0 84 11 151 25 67 14 156 30 198 36 42 5 110 18 151 29 41
11 101 22 134 26 32 3 103 17 156 30 53 13 108 24 121 24 14 0 78 13 144 29
65 16 154 36 198 45 44 9 107 22 140 30 33 8 92 21 130 30 83 17 182 41 285
68 41 11 109 26 150 34 41 8 102 23 135 34 33 10 85 23 115 29 30 5 75 17 100
26 25 9 68 20 95 26 46 8 104 24 295 79 41 11 100 27 130 34 55 13 111 29 295
87 55 17 125 37 155 44 30 7 75 20 100 28 25 9 99 32 165 52 66 21 152 48 190
60 39 13 97 31 130 40 33 9 65 20 70 25 6 4 30 12 55 18 25 6 104 31 175 56
72 26 157 55 190 65 107 34 400 137 423 150 13 7 45 19 70 26 65 19 243 84
256 94 6 4 31 13 56 20 25 7 63 22 84 32 22 10 44 19 49 19 8 0 205 75 262
101 11 4 43 17 70 28 28 10 113 45 190 76 77 32 176 72 220 90 119 48 270 112
360 152 44 20 94 42 110 49 37 16 241 107 315 141 63 28 118 54 240 111 47 22
112 52 145 67 171 79 436 207 465 224 8 5 85 44 170 86 178 88 449 227 530
272 30 17 96 52 145 78 148 79 303 163 404 221 40 23 196 110 281 157 30 16
78 45 107 63 28 19 54 34 57 34 3 0 33 17 68 38 120 73 259 157 296 178 99 56
118 67 132 79 8 7 51 33 95 59 115 67 209 127 215 136 3 4 25 18 50 30 25 12
70 40 100 60 30 21 129 86 220 145 91 60 203 133 249 164 46 31 105 70 132 87
27 17 57 38 67 47 10 9 24 17 30 17 7 0 12 4 12 9 0 5 20 20 43 34 24 13 73
45 108 71 63 45 95 68 234 163 38 26 104 73 145 104 41 31 107 78 146 105 38
27 92 66 120 87 27 21 87 66 134 100 163 121 265 197 285 215 11 10 51 40 88
67 37 28 121 93 186 145 65 52 131 104 147 115 16 11 69 54 119 96 49 41 122
100 160 129 39 30 72 57 75 60 3 3 32 28 65 55 33 28 62 52 65 55 3 3 84 71
180 151 97 80 187 157 200 170 14 13 70 62 125 108 55 46 105 89 110 95 6 6
43 39 82 74 40 35 85 75 101 90 31 30 192 177 267 243 27 24 58 53 70 64 11
12 79 74 150 140 157 144 434 417 1099 1085 527 529 603 608 802 827 40 43 83
90 95 104 13 14 62 68 109 119 47 51 110 121 141 154 31 34 69 76 85 95 16 18
38 43 49 54 11 12 58 67 104 122 46 55 96 111 109 125 14 14 104 120 200 235
96 116 182 217 191 226 9 9 27 31 41 49 14 18 64 81 112 139 48 58 120 149
160 201 40 52 107 136 148 186 41 51 93 117 114 148 22 31 47 64 55 73 25 27
219 284 286 378 33 46 112 155 175 242 170 234 289 403 372 527 26 39 51 76
55 81 13 15 286 425 338 507 6 9 24 36 40 59 17 24 34 51 38 59 9 19 32 55 78
122 50 74 282 449 326 528 14 25 40 68 57 95 42 68 114 187 165 275 5 8 29 49
54 90 24 41 79 138 122 215 43 77 89 158 101 180 13 22 31 56 41 75 9 19 25
46 34 61 10 14 42 72 73 130 30 57 78 147 106 199 28 52 63 120 78 150 15 30
30 59 35 65 6 9 143 275 200 390 174 354 291 596 370 765 14 30 46 99 71 154
25 54 46 100 46 101 0 2 20 46 45 99 25 53 45 99 45 101 0 5 65 153 111 253
16 34 29 66 29 72 0 5 12 36 26 67 15 32 35 76 44 98 39 88 176 421 215 520
12 33 39 103 60 155 88 227 214 566 276 740 12 36 28 79 35 95 7 17 35 98 63
180 28 83 70 209 94 280 89 263 117 351 117 371 0 11 4 24 9 30 8 9 18 37 81
244 18 58 43 138 56 178 13 40 24 79 24 87 0 8 9 42 21 74 19 57 38 121 94
321 51 183 72 262 115 425 59 221 80 306 107 420 7 33 18 78 23 100 6 22 19
78 31 125 11 47 31 128 45 180 14 52 29 122 34 155 5 33 16 83 25 110 9 28 20
82 26 120 5 39 16 90 24 115 8 25 23 95 34 155 11 61 29 153 40 205 11 52 27
131 35 175 8 44 21 114 30 155 8 41 19 104 24 140 10 67 35 207 77 440 14 74
30 176 35 225 6 50 17 119 25 155 8 36 19 117 25 182 6 64 17 147 25 185 8 37
19 113 25 168 6 55 20 165 31 245 27 184 36 268 43 403 l6 107 -1218 -2 -1217
-3 -7 -90 c-4 -49 -11 -108 -17 -130 -19 -74 -31 -148 -41 -243 -6 -52 -19
-131 -30 -176 -10 -45 -22 -112 -26 -151 -3 -38 -17 -115 -30 -170 -13 -55
-26 -129 -30 -165 -3 -36 -15 -96 -25 -134 -10 -37 -23 -105 -29 -150 -6 -44
-22 -124 -35 -176 -13 -52 -27 -122 -33 -155 -5 -33 -19 -98 -30 -145 -12 -47
-34 -146 -51 -220 -60 -269 -86 -379 -113 -480 -11 -41 -26 -104 -34 -140 -18
-90 -62 -259 -90 -354 -13 -44 -24 -87 -24 -97 0 -10 -11 -51 -24 -91 -14 -40
-32 -102 -40 -138 -8 -36 -31 -121 -52 -190 -20 -69 -47 -161 -60 -205 -12
-44 -36 -125 -52 -180 -17 -55 -40 -134 -52 -175 -12 -41 -31 -100 -42 -130
-11 -30 -23 -73 -28 -95 -5 -22 -16 -57 -24 -77 -9 -21 -23 -62 -30 -90 -8
-29 -24 -80 -36 -113 -12 -33 -28 -80 -35 -105 -7 -25 -43 -130 -80 -235 -37
-104 -77 -221 -90 -260 -13 -38 -38 -108 -55 -155 -18 -47 -42 -116 -56 -155
-23 -68 -65 -182 -117 -315 -14 -36 -39 -101 -56 -145 -16 -44 -44 -116 -62
-160 -17 -44 -42 -108 -55 -142 -13 -34 -28 -70 -33 -80 -5 -10 -42 -99 -82
-198 -39 -99 -82 -203 -95 -232 -13 -28 -24 -54 -24 -57 0 -2 -16 -39 -35 -80
-19 -42 -35 -79 -35 -84 0 -4 -9 -25 -20 -47 -11 -22 -55 -121 -99 -220 -43
-99 -100 -224 -125 -277 -25 -53 -46 -99 -46 -102 0 -2 -25 -58 -56 -123 -31
-65 -81 -170 -111 -233 -66 -140 -361 -728 -414 -826 -21 -39 -59 -111 -84
-160 -25 -49 -50 -96 -55 -104 -39 -70 -227 -413 -320 -585 -9 -16 -27 -48
-41 -70 -14 -22 -28 -47 -32 -55 -4 -8 -18 -33 -32 -55 -13 -22 -36 -62 -51
-90 -15 -27 -34 -61 -44 -75 -9 -14 -29 -45 -42 -70 -14 -25 -58 -98 -97 -163
-39 -65 -71 -120 -71 -123 0 -2 -16 -26 -34 -52 -19 -26 -40 -59 -46 -72 -16
-37 -35 -68 -53 -88 -10 -10 -17 -22 -17 -26 0 -4 -32 -58 -72 -119 -39 -62
-90 -141 -113 -177 -23 -36 -62 -96 -87 -135 -25 -38 -57 -90 -72 -115 -15
-25 -42 -65 -61 -90 -18 -25 -34 -48 -34 -52 -1 -8 -42 -72 -67 -103 -9 -11
-35 -49 -58 -85 -45 -68 -166 -247 -248 -365 -27 -38 -73 -106 -104 -150 -31
-44 -79 -111 -107 -150 -29 -38 -70 -96 -92 -127 -81 -116 -190 -264 -230
-313 -23 -27 -48 -61 -57 -75 -8 -14 -51 -71 -94 -127 -44 -56 -86 -111 -94
-123 -17 -24 -35 -47 -105 -135 -27 -35 -61 -78 -75 -96 -14 -19 -61 -78 -105
-132 -44 -54 -105 -132 -136 -172 -31 -41 -78 -100 -106 -132 -27 -32 -105
-125 -172 -208 -68 -82 -144 -172 -170 -200 -26 -27 -91 -104 -146 -170 -54
-66 -121 -145 -149 -175 -61 -66 -156 -172 -337 -375 -231 -260 -509 -547
-815 -845 -251 -243 -369 -353 -589 -545 -44 -38 -129 -115 -190 -171 -60 -55
-166 -147 -235 -204 -69 -58 -135 -115 -148 -127 -13 -13 -26 -23 -31 -23 -4
0 -36 75 -71 167 -457 1215 -1161 2322 -2030 3193 -596 596 -1234 1060 -1960
1424 -788 394 -1519 603 -2440 698 -196 20 -951 17 -1155 -5 -683 -74 -1247
-211 -1835 -444 -1910 -760 -3492 -2379 -4393 -4498 -248 -583 -461 -1262
-581 -1850 -15 -71 -28 -134 -30 -140 -2 -5 -38 59 -80 144 -378 754 -914
1432 -1553 1966 -779 650 -1700 1092 -2668 1279 -142 27 -440 75 -630 101
-213 30 -1119 53 -1385 36 -1194 -76 -2321 -504 -3271 -1243 -278 -216 -637
-556 -853 -808 -635 -740 -1075 -1571 -1335 -2520 -27 -100 -96 -406 -111
-500 -7 -41 -16 -78 -20 -83 -3 -4 -21 28 -40 70 -59 138 -229 468 -315 613
-677 1135 -1681 1858 -2795 2011 -62 9 -210 13 -425 14 -355 0 -414 -6 -694
-69 -691 -157 -1369 -567 -1898 -1148 -70 -77 -133 -138 -143 -138 -10 0 -23
7 -30 15 -6 8 -48 38 -92 67 -44 29 -93 62 -108 73 -31 22 -96 68 -150 106
-34 24 -105 75 -304 221 -55 40 -109 80 -121 88 -12 8 -93 69 -180 135 -86 66
-176 133 -199 149 -22 16 -66 50 -97 75 -61 50 -72 58 -199 156 -47 36 -105
83 -130 105 -25 21 -93 76 -151 122 -59 45 -155 124 -215 173 -59 50 -139 116
-178 148 -39 33 -89 75 -111 95 -34 32 -78 69 -205 174 -57 48 -156 134 -175
153 -34 32 -124 114 -205 184 -368 320 -907 846 -1280 1251 -63 69 -120 129
-126 135 -6 5 -56 62 -109 125 -54 63 -108 124 -119 135 -40 40 -177 194 -232
261 -31 38 -62 76 -70 84 -55 61 -194 224 -269 315 -49 61 -126 153 -170 205
-45 52 -107 129 -138 171 -31 41 -71 91 -88 110 -17 19 -60 74 -97 122 -37 49
-90 116 -118 150 -51 63 -116 149 -237 312 -37 50 -84 112 -104 139 -21 27
-61 81 -90 120 -28 39 -70 96 -93 126 -57 75 -180 247 -254 354 -33 49 -87
125 -118 170 -32 44 -75 108 -97 141 -22 33 -51 76 -65 95 -14 19 -46 69 -73
110 -26 41 -50 77 -54 80 -8 6 -262 397 -294 452 -5 10 -26 41 -46 70 -44 64
-241 382 -316 508 -14 25 -41 68 -60 97 -18 28 -33 54 -33 58 0 3 -17 32 -37
63 -20 31 -47 75 -58 97 -12 22 -55 97 -96 167 -105 180 -106 180 -179 314
-37 66 -84 152 -105 190 -21 38 -48 87 -60 109 -12 22 -65 119 -117 215 -52
96 -102 189 -110 205 -8 17 -98 194 -199 395 -234 463 -360 729 -576 1210 -18
41 -40 88 -48 103 -8 16 -15 33 -15 38 0 5 -13 37 -29 71 -16 35 -45 104 -66
153 -20 50 -45 106 -54 125 -10 19 -26 59 -35 87 -10 29 -22 55 -27 58 -5 4
-9 13 -9 21 0 7 -16 48 -35 90 -19 41 -35 79 -35 83 0 4 -25 68 -56 142 -31
74 -59 145 -64 159 -4 14 -21 59 -38 100 -17 41 -47 120 -68 175 -20 55 -52
141 -71 190 -45 119 -91 248 -110 310 -8 28 -24 66 -34 87 -10 20 -23 53 -28
75 -10 36 -70 210 -103 298 -9 22 -44 128 -78 235 -34 107 -73 224 -86 260
-13 36 -24 72 -24 80 0 8 -11 47 -24 85 -42 124 -139 443 -156 515 -6 25 -18
62 -26 83 -7 20 -19 59 -24 85 -6 26 -21 83 -34 127 -46 150 -67 230 -81 295
-8 36 -21 85 -30 110 -9 25 -20 65 -26 90 -9 46 -50 208 -89 355 -11 44 -25
103 -31 130 -9 47 -29 133 -80 340 -12 50 -30 133 -40 185 -9 52 -27 131 -38
174 -12 44 -21 91 -21 105 0 14 -11 68 -25 120 -14 51 -28 117 -31 145 -4 28
-15 89 -26 136 -10 47 -27 137 -37 200 -10 63 -26 142 -34 175 -8 33 -18 92
-22 130 -3 39 -15 107 -25 152 -11 45 -24 121 -30 170 -14 112 -37 251 -45
263 -3 5 -10 65 -16 132 -5 68 -16 149 -24 180 -8 32 -20 108 -26 170 -6 62
-22 185 -35 272 -14 88 -29 216 -34 285 -5 69 -18 185 -29 256 -11 72 -25 209
-30 306 -6 96 -17 227 -25 290 -20 152 -24 213 -36 479 -6 124 -17 306 -25
405 -39 465 -37 1270 4 1825 11 146 23 339 26 430 6 162 16 275 35 415 5 39
14 153 20 255 6 102 20 241 31 309 11 68 24 181 29 250 4 69 19 200 33 291 14
91 30 216 36 277 6 62 15 123 20 135 5 13 14 73 20 133 6 61 20 157 31 215 11
58 27 161 35 230 9 69 23 151 31 182 8 32 21 108 29 170 8 62 22 136 29 163 8
28 20 91 27 140 6 50 20 124 30 165 11 41 24 107 29 145 5 39 21 117 34 175
23 98 32 141 72 340 8 41 26 118 40 170 13 52 29 123 34 156 6 34 17 81 25
104 8 23 20 72 26 108 6 37 19 94 30 127 10 33 25 92 33 130 8 39 30 131 49
205 20 74 43 164 53 200 9 36 29 110 44 165 15 55 32 118 38 140 16 61 50 181
77 270 13 44 38 127 55 185 17 58 44 148 60 200 17 52 36 118 44 145 8 28 22
73 31 100 9 28 30 95 47 150 17 55 42 129 54 165 28 80 59 176 84 255 10 33
37 112 60 175 23 63 48 135 55 160 7 25 24 72 38 105 13 33 28 71 32 85 11 41
132 367 210 570 18 47 45 117 59 155 27 70 77 193 102 250 7 17 36 86 63 155
67 169 152 372 184 443 15 32 27 62 27 66 0 5 7 22 15 38 18 35 85 182 85 188
0 3 26 62 95 210 18 39 42 93 55 120 73 162 111 243 215 460 105 217 350 706
419 835 31 58 70 132 87 165 31 62 37 73 100 185 20 36 54 99 76 140 44 83
129 237 143 260 22 35 180 312 180 316 0 4 79 135 126 209 17 28 42 70 55 95
14 25 31 56 40 70 84 135 131 211 149 245 12 22 31 54 43 71 12 18 49 75 82
129 33 53 83 131 110 173 28 43 68 106 90 142 57 91 437 660 485 725 22 30 40
57 40 60 0 7 34 56 80 115 20 25 48 65 64 89 15 24 56 81 90 127 33 46 97 134
141 195 134 186 271 369 345 461 25 31 65 85 90 120 24 35 63 86 86 113 22 28
72 91 110 140 38 50 102 131 144 182 119 145 180 219 258 317 75 93 136 165
207 246 22 25 85 99 139 165 55 66 102 122 105 125 3 3 40 43 81 90 41 47 86
97 100 111 14 14 68 74 120 134 105 120 283 316 400 440 96 102 599 605 710
710 117 111 309 287 344 316 17 13 60 51 96 84 36 33 86 78 111 100 25 22 85
76 134 120 50 44 92 82 95 85 3 3 58 49 123 104 118 98 146 122 222 191 22 20
73 61 113 91 40 31 81 64 90 73 9 9 44 39 77 67 33 27 62 51 65 54 3 3 34 27
70 55 36 27 103 81 150 120 47 39 101 82 120 95 19 13 40 29 47 35 30 26 168
133 258 201 55 42 151 114 213 162 63 48 148 111 190 141 43 30 115 83 161
117 47 35 90 64 96 64 7 0 73 -92 148 -204 300 -449 606 -824 971 -1189 313
-312 654 -599 1006 -844 705 -491 1497 -853 2310 -1057 871 -219 1696 -267
2575 -152 60 8 112 13 116 10 4 -2 45 3 90 11 46 8 462 77 924 155 461 77 841
143 844 146 3 3 -30 213 -73 467 -42 254 -117 701 -166 992 -49 292 -143 854
-210 1250 -66 396 -177 1055 -246 1465 -69 410 -163 972 -210 1250 -47 278
-150 892 -229 1365 -217 1290 -415 2470 -595 3540 -89 528 -165 985 -170 1015
-5 30 -49 296 -99 590 -49 294 -145 859 -211 1255 -67 396 -159 946 -205 1223
-47 276 -85 505 -85 507 0 10 -67 0 -450 -65z"/>
<path d="M54060 88480 c-69 -4 -170 -13 -225 -19 -55 -7 -136 -16 -180 -21
-44 -5 -199 -27 -345 -50 -146 -23 -292 -45 -325 -50 -65 -9 -321 -52 -450
-75 -44 -8 -96 -16 -115 -19 -53 -8 -334 -54 -432 -71 -198 -34 -278 -47 -603
-100 -187 -30 -379 -62 -427 -70 -201 -34 -275 -47 -513 -85 -137 -22 -272
-44 -300 -50 -27 -5 -351 -59 -720 -120 -936 -155 -1149 -190 -1151 -193 -1
-1 36 -229 82 -507 46 -278 88 -532 93 -565 17 -108 121 -728 136 -810 8 -44
28 -168 46 -275 17 -107 33 -196 34 -197 1 -3 412 64 845 137 96 16 328 54
515 85 187 30 379 62 428 70 48 8 126 22 175 30 48 8 141 23 207 35 66 11 147
24 180 30 33 5 101 16 150 24 50 9 104 18 120 20 17 3 138 23 270 45 132 22
434 72 670 111 237 39 509 84 605 100 96 16 220 36 275 45 121 19 229 38 395
70 69 13 224 42 345 65 121 22 247 47 280 55 159 38 277 65 345 80 200 44 568
192 815 328 531 292 844 650 863 985 4 78 -8 182 -27 227 -44 103 -84 166
-155 241 -261 280 -797 467 -1401 489 -330 11 -383 12 -505 5z"/>
<path d="M57990 86571 l0 -1199 28 -5 c15 -3 92 -11 172 -17 80 -6 196 -20
258 -31 62 -11 177 -26 255 -34 78 -8 176 -21 217 -29 41 -8 125 -20 185 -26
61 -6 151 -20 200 -30 50 -10 135 -24 190 -30 55 -6 136 -20 180 -30 44 -11
118 -24 165 -29 47 -5 123 -19 169 -30 47 -11 112 -23 145 -27 34 -3 106 -16
161 -29 55 -13 125 -27 155 -30 30 -4 89 -16 130 -26 41 -11 111 -26 155 -33
44 -8 121 -23 170 -35 50 -12 151 -35 225 -52 74 -17 173 -40 220 -51 47 -11
108 -25 135 -31 28 -5 81 -18 119 -29 39 -11 99 -26 135 -33 36 -8 84 -19 106
-25 22 -7 76 -20 120 -30 44 -10 109 -28 144 -39 35 -12 72 -21 83 -21 10 0
60 -13 110 -30 50 -16 98 -30 107 -30 9 0 63 -14 121 -31 58 -17 150 -44 205
-60 55 -17 136 -41 180 -54 44 -13 100 -29 125 -35 25 -7 77 -22 115 -35 39
-12 111 -35 160 -50 95 -29 240 -76 315 -101 25 -9 68 -23 95 -31 80 -25 281
-93 400 -135 61 -22 130 -45 155 -53 25 -8 72 -25 105 -39 33 -14 70 -26 82
-26 12 0 25 -4 28 -10 3 -5 40 -21 83 -34 42 -14 120 -42 172 -61 52 -20 124
-47 160 -60 117 -42 204 -76 245 -94 22 -10 51 -22 65 -26 14 -4 43 -15 65
-25 22 -10 83 -34 135 -55 255 -99 487 -214 739 -365 31 -19 287 -186 323
-211 182 -127 316 -218 356 -244 26 -16 238 -155 352 -231 58 -38 163 -109
233 -159 147 -103 148 -103 242 -163 76 -49 123 -80 505 -337 379 -256 381
-257 448 -299 39 -25 62 -47 62 -58 0 -17 -27 -88 -70 -183 -56 -126 -67 -168
-80 -315 -10 -118 -30 -290 -65 -565 -9 -66 -22 -185 -30 -265 -8 -80 -25
-237 -39 -350 -14 -113 -32 -284 -41 -380 -8 -96 -24 -263 -35 -370 -11 -107
-27 -298 -35 -425 -8 -126 -19 -273 -25 -325 -56 -562 -84 -1553 -61 -2200 12
-337 37 -824 46 -870 2 -14 9 -90 15 -170 9 -126 61 -568 75 -640 3 -14 12
-79 20 -145 9 -66 29 -196 45 -290 16 -93 48 -277 70 -408 49 -289 56 -325
121 -597 116 -487 219 -875 269 -1015 10 -27 36 -106 58 -175 22 -69 55 -163
72 -210 18 -47 52 -141 75 -210 48 -136 150 -392 192 -480 14 -30 44 -97 65
-149 39 -94 279 -583 319 -651 11 -19 38 -69 60 -110 22 -41 48 -88 58 -105
10 -16 33 -57 51 -90 39 -70 98 -166 195 -314 39 -59 75 -114 80 -123 10 -16
134 -194 190 -272 44 -62 352 -452 406 -516 26 -30 80 -93 119 -140 160 -188
594 -613 925 -906 150 -132 681 -532 900 -678 39 -25 86 -58 106 -72 20 -14
45 -31 56 -37 11 -7 38 -24 59 -38 94 -63 217 -140 314 -198 58 -34 112 -66
120 -71 8 -6 32 -19 52 -30 21 -11 99 -57 175 -101 76 -45 158 -93 183 -107
25 -13 50 -28 55 -32 37 -27 1354 -691 1605 -810 236 -111 324 -151 360 -165
19 -7 138 -63 263 -124 126 -61 230 -111 232 -111 1 0 46 -20 98 -45 53 -25
98 -45 101 -45 6 0 136 -61 291 -135 61 -29 175 -84 255 -123 363 -174 537
-262 835 -422 55 -29 156 -82 225 -118 69 -35 130 -68 135 -73 6 -4 62 -36
125 -70 272 -147 309 -167 388 -217 46 -29 93 -57 105 -62 32 -13 314 -187
399 -246 41 -28 94 -62 118 -74 25 -12 83 -51 130 -85 47 -34 116 -81 154
-104 38 -23 108 -72 155 -109 47 -38 103 -79 124 -91 21 -13 89 -65 151 -115
62 -50 123 -99 137 -109 13 -9 39 -28 57 -41 19 -14 53 -42 75 -63 23 -21 80
-70 127 -108 122 -98 147 -120 220 -189 36 -33 101 -93 145 -132 154 -138 483
-471 631 -639 153 -175 180 -205 234 -265 17 -19 83 -104 146 -188 63 -84 141
-183 174 -221 33 -38 105 -138 161 -223 55 -84 109 -164 118 -178 10 -14 48
-74 86 -135 37 -60 95 -150 128 -200 51 -76 187 -301 187 -309 0 -1 31 -58 68
-127 37 -68 78 -151 91 -184 31 -80 34 -87 79 -185 159 -345 367 -909 477
-1291 116 -403 175 -655 209 -889 8 -58 31 -179 50 -270 41 -194 58 -308 96
-625 21 -178 65 -453 73 -461 3 -3 22 45 42 106 48 144 211 545 375 920 37 85
93 218 123 295 30 77 79 192 107 255 28 63 71 165 95 225 24 61 108 263 186
450 78 187 163 392 189 455 78 187 163 385 234 547 42 97 97 251 150 425 79
257 109 370 221 833 25 105 75 305 110 445 35 140 93 390 130 555 36 165 92
422 125 570 105 476 190 940 190 1040 0 28 7 97 15 155 8 58 22 170 30 250 16
141 32 272 95 763 16 131 35 335 40 455 11 236 14 275 36 492 8 80 19 283 24
452 5 169 11 312 14 316 14 24 5 1549 -9 1572 -4 6 -11 106 -15 223 -5 117
-16 250 -25 297 -8 47 -20 162 -25 255 -5 94 -16 204 -24 245 -8 41 -18 129
-21 195 -4 66 -18 178 -31 249 -13 71 -24 152 -24 180 0 49 -10 111 -44 261
-9 39 -16 90 -16 115 0 44 -35 233 -46 251 -3 5 -12 64 -20 130 -7 67 -25 160
-38 207 -14 48 -32 130 -40 183 -9 53 -26 130 -39 170 -13 41 -27 98 -31 128
-8 58 -25 127 -49 201 -8 25 -23 88 -32 140 -9 52 -23 109 -30 125 -17 36 -61
187 -71 241 -3 22 -10 44 -14 49 -8 11 -40 104 -60 175 -7 25 -23 74 -36 110
-26 73 -42 123 -74 225 -12 39 -28 84 -35 100 -8 17 -21 57 -30 90 -20 75 -31
104 -67 183 -15 35 -28 70 -28 77 0 17 -58 165 -70 180 -4 6 -18 42 -31 80
-12 39 -37 102 -54 140 -18 39 -38 90 -45 115 -7 25 -27 77 -46 115 -18 39
-43 99 -55 135 -12 35 -34 85 -49 111 -15 25 -31 57 -35 70 -10 33 -66 151
-78 167 -6 7 -24 48 -42 90 -17 42 -43 95 -56 117 -14 22 -38 71 -53 108 -16
37 -41 87 -57 110 -16 23 -29 48 -29 54 0 7 -39 88 -86 180 -109 213 -118 230
-179 333 -27 47 -58 103 -68 125 -10 22 -24 46 -31 55 -8 8 -32 49 -54 90 -22
41 -63 113 -90 160 -28 47 -63 107 -79 133 -15 27 -61 99 -100 160 -40 62 -83
128 -95 147 -13 19 -26 37 -29 40 -4 3 -16 25 -29 50 -12 25 -36 63 -52 85
-38 51 -125 186 -159 245 -14 25 -61 95 -102 155 -102 147 -170 245 -182 264
-5 9 -24 34 -41 56 -17 22 -47 64 -68 94 -20 30 -50 70 -66 90 -35 41 -136
179 -227 306 -18 25 -76 98 -130 163 -107 129 -197 238 -218 264 -81 99 -119
145 -179 217 -39 46 -83 99 -98 118 -15 19 -33 40 -41 46 -15 13 -103 110
-177 197 -25 29 -65 74 -90 101 -25 26 -74 80 -110 120 -218 242 -978 977
-1285 1244 -31 28 -84 75 -117 105 -33 30 -70 62 -82 70 -29 20 -252 198 -526
420 -37 30 -119 93 -180 140 -62 47 -121 92 -131 100 -10 8 -53 39 -96 68 -43
29 -114 77 -158 107 -44 30 -97 63 -117 75 -21 11 -61 39 -90 63 -76 61 -126
97 -133 97 -3 0 -37 25 -74 55 -38 30 -71 55 -74 55 -3 0 -47 29 -98 63 -52
35 -134 85 -184 111 -49 27 -97 54 -105 61 -8 7 -51 31 -95 53 -44 22 -105 57
-135 77 -30 20 -73 46 -95 57 -22 12 -51 29 -65 38 -72 51 -146 94 -250 148
-231 120 -286 148 -349 177 -35 16 -89 44 -119 62 -30 18 -89 51 -131 74 -42
23 -80 45 -86 49 -13 10 -351 180 -359 180 -14 0 -377 171 -446 210 -100 57
-533 243 -875 378 -55 22 -122 49 -150 62 -98 45 -245 103 -580 230 -325 123
-434 165 -500 195 -98 45 -278 117 -475 192 -124 46 -319 122 -435 168 -233
92 -512 200 -650 250 -49 18 -126 46 -170 62 -44 17 -150 56 -235 88 -85 31
-238 90 -340 131 -167 66 -279 108 -555 209 -49 18 -126 47 -170 65 -44 18
-125 49 -180 70 -55 21 -131 52 -170 70 -38 17 -110 47 -160 66 -49 19 -108
43 -130 53 -22 11 -65 29 -95 41 -30 12 -199 94 -376 181 -177 87 -330 159
-340 159 -10 0 -45 16 -77 35 -32 19 -60 35 -62 35 -3 0 -49 24 -102 54 -54
30 -138 75 -188 101 -229 120 -403 210 -440 228 -22 10 -47 23 -55 28 -8 5
-73 37 -145 73 -71 35 -149 73 -172 85 -148 74 -451 218 -563 268 -30 13 -82
37 -115 53 -79 38 -172 80 -265 119 -41 18 -98 43 -127 57 -28 13 -54 24 -57
24 -3 0 -39 16 -80 35 -41 19 -81 35 -89 35 -7 0 -17 4 -23 9 -5 5 -65 32
-134 60 -69 29 -150 63 -180 76 -30 13 -98 40 -150 61 -52 20 -118 47 -147 60
-28 13 -57 24 -63 24 -5 0 -18 4 -28 10 -9 5 -71 30 -137 55 -66 26 -152 60
-192 76 -39 16 -77 29 -83 29 -7 0 -26 7 -43 15 -18 8 -63 26 -102 39 -38 14
-106 39 -150 55 -202 74 -320 116 -440 157 -71 24 -184 62 -250 85 -66 22
-147 49 -180 59 -33 10 -89 28 -125 40 -81 27 -214 69 -350 110 -58 18 -130
40 -160 50 -30 10 -80 24 -110 31 -30 6 -59 15 -65 19 -5 4 -41 15 -80 25 -38
10 -101 28 -140 41 -38 13 -97 30 -130 38 -106 26 -218 56 -300 82 -44 13 -90
24 -101 24 -12 0 -55 11 -95 24 -41 14 -101 30 -134 36 -33 6 -85 20 -115 30
-30 10 -77 21 -105 25 -27 4 -77 15 -110 25 -33 11 -96 26 -140 35 -44 9 -107
24 -140 34 -33 10 -85 22 -115 26 -30 4 -84 15 -120 26 -36 10 -96 23 -135 29
-38 6 -90 17 -115 25 -25 8 -85 21 -135 30 -49 8 -139 26 -200 39 -169 37
-330 67 -435 82 -52 7 -120 20 -150 28 -30 8 -95 20 -145 26 -49 6 -144 22
-210 35 -66 13 -163 28 -215 34 -52 6 -140 20 -195 31 -55 10 -125 19 -155 20
-30 0 -98 9 -150 20 -52 11 -144 24 -205 30 -60 6 -186 22 -280 36 -93 14
-233 29 -310 34 -77 6 -185 17 -240 25 -55 8 -176 20 -270 25 -161 10 -252 17
-460 39 -49 5 -120 12 -157 16 l-68 6 0 -1200z m11988 -5428 c41 -32 118 -91
171 -131 53 -40 129 -99 170 -130 41 -31 86 -66 100 -77 14 -11 64 -50 111
-87 47 -38 109 -87 139 -111 29 -23 75 -60 101 -82 26 -22 102 -85 170 -140
68 -55 160 -131 206 -170 45 -38 135 -115 199 -170 135 -114 280 -242 416
-366 52 -47 173 -157 269 -244 337 -305 727 -686 1092 -1066 91 -96 188 -197
215 -224 133 -140 264 -279 318 -339 33 -37 76 -84 95 -105 19 -21 87 -97 150
-170 63 -72 158 -180 210 -240 52 -60 120 -139 150 -176 30 -37 75 -91 100
-120 25 -29 72 -86 105 -125 33 -40 78 -94 100 -120 87 -105 147 -180 280
-356 28 -36 70 -92 95 -124 25 -32 65 -86 90 -119 25 -34 64 -84 88 -113 23
-28 42 -55 42 -59 0 -4 16 -27 37 -51 20 -23 51 -65 70 -93 18 -27 56 -79 83
-115 27 -36 66 -90 86 -120 21 -30 53 -73 71 -94 18 -22 33 -45 33 -51 0 -7 9
-20 20 -30 11 -10 41 -48 66 -84 59 -87 86 -126 129 -186 43 -59 89 -128 130
-194 39 -62 86 -135 125 -191 17 -25 45 -67 63 -94 18 -27 48 -73 67 -102 19
-28 49 -74 67 -100 18 -27 46 -69 63 -94 17 -25 49 -74 72 -110 71 -113 135
-213 177 -275 23 -33 58 -87 79 -120 22 -33 59 -91 84 -130 25 -38 76 -122
113 -185 79 -133 193 -319 325 -530 26 -41 71 -113 100 -160 29 -47 63 -101
75 -120 25 -39 217 -342 274 -433 20 -32 57 -90 82 -130 25 -40 78 -126 119
-192 76 -125 121 -195 224 -355 33 -53 84 -133 111 -179 40 -66 280 -431 372
-567 11 -16 49 -74 85 -129 113 -175 275 -418 317 -477 83 -117 116 -164 151
-214 76 -111 314 -446 400 -564 81 -111 121 -168 209 -299 13 -20 47 -63 75
-97 28 -34 96 -119 151 -189 55 -71 107 -135 116 -144 8 -9 46 -52 84 -96 153
-180 172 -202 211 -245 22 -25 52 -58 65 -74 13 -16 31 -36 40 -45 8 -9 44
-50 79 -91 35 -41 74 -86 86 -99 13 -13 40 -58 60 -100 20 -42 42 -87 50 -101
7 -14 21 -48 32 -75 11 -28 31 -75 45 -105 14 -30 44 -102 67 -160 23 -58 50
-121 61 -140 10 -19 48 -97 83 -172 36 -76 78 -157 93 -180 14 -24 46 -83 71
-133 69 -140 401 -645 499 -760 5 -5 45 -53 88 -105 215 -257 264 -307 372
-373 15 -9 17 -15 -50 143 -51 122 -99 240 -132 325 -13 33 -40 103 -60 155
-20 52 -45 113 -55 135 -9 22 -43 105 -75 185 -124 317 -145 368 -175 435 -18
39 -43 95 -57 125 -13 30 -33 73 -44 95 -10 22 -56 126 -102 230 -109 246
-293 659 -316 710 -30 64 -123 275 -211 480 -45 105 -104 240 -131 302 -27 61
-49 114 -49 117 0 3 -18 42 -39 88 -54 114 -141 308 -141 314 0 5 -115 262
-175 389 -23 50 -50 108 -60 130 -10 22 -45 96 -77 164 -32 68 -58 125 -58
128 0 20 -668 1355 -740 1478 -10 17 -40 73 -68 125 -27 52 -65 124 -85 160
-33 62 -45 84 -114 210 -17 30 -49 91 -73 135 -24 44 -59 109 -78 145 -19 36
-38 70 -42 75 -4 6 -21 35 -37 65 -17 30 -40 72 -52 93 -12 22 -43 78 -68 125
-25 48 -57 104 -70 125 -13 20 -37 63 -54 95 -54 102 -91 167 -105 183 -8 8
-14 19 -14 22 0 6 -63 112 -110 187 -6 8 -19 31 -30 50 -11 19 -28 47 -38 62
-9 14 -84 134 -166 265 -82 131 -159 252 -170 268 -12 17 -26 39 -33 50 -6 11
-58 94 -115 184 -57 90 -110 176 -118 190 -9 14 -23 37 -32 51 -9 14 -62 99
-118 190 -57 91 -110 177 -119 191 -18 29 -145 217 -178 263 -48 66 -210 298
-258 366 -27 40 -108 155 -180 256 -71 101 -164 232 -205 291 -41 60 -97 138
-125 175 -62 83 -157 214 -170 236 -13 22 -125 173 -178 241 -23 29 -49 63
-57 76 -8 12 -42 58 -75 100 -79 104 -106 139 -155 205 -83 112 -96 129 -140
187 -25 32 -65 84 -90 115 -25 31 -70 89 -100 128 -30 40 -73 94 -95 121 -22
27 -59 72 -83 101 -178 221 -219 273 -237 298 -32 44 -210 253 -239 279 -14
14 -26 29 -26 34 0 6 -30 43 -67 83 -122 131 -193 211 -193 218 0 4 -48 60
-106 124 -59 64 -121 133 -138 152 -18 19 -59 64 -92 100 -32 36 -95 105 -139
154 -44 49 -124 136 -177 193 -116 123 -126 145 -49 103 20 -10 151 -75 291
-143 224 -109 401 -200 535 -277 22 -12 126 -67 230 -120 105 -54 231 -121
280 -151 50 -29 155 -89 235 -134 80 -45 177 -102 215 -127 39 -25 111 -67
160 -93 88 -47 138 -78 415 -255 74 -48 151 -96 171 -108 20 -12 53 -36 75
-53 21 -17 88 -62 149 -100 134 -85 244 -161 318 -220 30 -24 98 -75 152 -114
53 -38 133 -97 178 -131 45 -33 100 -72 122 -86 22 -14 53 -38 69 -53 16 -15
52 -45 80 -67 68 -54 136 -112 216 -183 116 -104 192 -169 214 -184 57 -39
279 -239 457 -411 174 -168 229 -225 299 -306 41 -48 107 -122 147 -163 39
-42 86 -92 104 -111 18 -19 98 -103 179 -186 125 -128 326 -366 409 -482 13
-19 33 -44 45 -56 67 -71 334 -414 425 -548 47 -68 123 -175 169 -238 47 -63
99 -134 116 -158 17 -24 47 -64 66 -90 35 -47 104 -149 127 -187 6 -11 35 -56
63 -100 28 -44 56 -89 63 -99 7 -11 71 -110 143 -220 136 -210 169 -263 220
-355 17 -31 52 -94 79 -141 26 -47 63 -114 82 -150 20 -36 41 -72 48 -80 7 -8
21 -33 31 -55 10 -22 37 -71 61 -110 24 -38 43 -73 43 -78 0 -4 16 -31 35 -60
19 -28 35 -55 35 -59 0 -4 14 -31 31 -60 17 -29 78 -147 135 -263 58 -115 114
-228 126 -250 11 -22 52 -103 90 -180 38 -77 85 -170 104 -208 19 -37 34 -72
34 -77 0 -6 20 -53 45 -106 25 -52 45 -99 45 -104 0 -5 20 -52 45 -104 25 -53
45 -101 45 -106 0 -5 18 -47 40 -92 58 -124 137 -300 145 -328 4 -14 23 -58
41 -98 19 -41 34 -79 34 -86 0 -7 17 -53 39 -102 21 -49 44 -107 51 -129 7
-22 23 -62 35 -90 12 -27 28 -68 35 -90 7 -22 21 -65 32 -95 11 -30 42 -118
70 -195 27 -77 59 -169 70 -205 11 -36 33 -101 48 -145 16 -44 34 -100 40
-125 6 -25 25 -81 41 -125 17 -44 41 -118 54 -165 13 -47 37 -125 53 -175 60
-180 103 -332 169 -600 8 -33 26 -103 40 -155 13 -52 37 -144 52 -205 15 -60
37 -139 49 -175 12 -36 28 -105 37 -155 9 -49 27 -128 40 -175 14 -47 29 -116
36 -155 6 -38 26 -130 45 -204 19 -73 34 -146 34 -162 0 -16 15 -89 34 -162
19 -72 37 -162 40 -198 4 -37 17 -122 30 -190 14 -68 29 -167 35 -220 6 -53
20 -142 31 -197 10 -55 26 -162 35 -238 9 -77 18 -146 20 -154 10 -34 35 -237
35 -284 0 -28 9 -114 20 -191 11 -77 25 -196 30 -265 6 -69 19 -205 30 -302
11 -98 20 -215 20 -260 0 -46 7 -169 16 -273 22 -277 31 -565 33 -1140 1 -458
-9 -828 -25 -892 -4 -13 -10 -23 -15 -23 -5 0 -27 24 -50 53 -22 28 -48 61
-58 72 -34 41 -167 221 -214 290 -74 110 -204 274 -300 378 -49 53 -98 108
-110 124 -51 65 -197 223 -257 277 -79 72 -93 86 -199 203 -46 51 -124 127
-175 169 -50 43 -127 112 -171 155 -44 42 -127 114 -184 158 -58 45 -134 109
-170 144 -75 72 -136 122 -220 181 -32 23 -87 66 -121 96 -34 30 -118 93 -185
140 -68 47 -157 111 -197 143 -214 170 -613 442 -888 605 -41 25 -111 68 -155
97 -102 66 -222 135 -355 203 -58 30 -116 62 -130 72 -14 10 -63 36 -109 59
-46 22 -89 45 -95 50 -21 18 -262 145 -441 233 -99 49 -193 96 -210 105 -105
55 -503 253 -509 253 -8 0 -196 86 -401 185 -289 139 -343 164 -420 198 -371
164 -416 184 -560 250 -66 30 -181 80 -255 112 -74 31 -163 70 -198 86 -35 16
-65 29 -67 29 -2 0 -87 41 -190 90 -102 50 -236 113 -298 141 -159 73 -692
341 -759 382 -13 8 -101 56 -197 108 -95 52 -185 101 -200 109 -14 8 -60 34
-101 58 -106 60 -514 309 -585 357 -185 125 -418 290 -479 339 -83 68 -242
196 -371 298 -66 52 -136 111 -156 129 -19 19 -78 72 -130 119 -233 211 -310
286 -429 419 -41 47 -100 112 -131 145 -31 34 -74 81 -95 105 -22 24 -48 54
-59 65 -98 103 -252 294 -325 403 -8 12 -58 81 -111 155 -181 252 -313 459
-441 688 -14 25 -39 70 -56 100 -107 190 -226 429 -292 585 -20 50 -47 110
-58 135 -268 584 -487 1210 -607 1735 -29 127 -76 329 -104 450 -28 121 -58
249 -66 285 -18 76 -107 561 -129 700 -20 125 -92 750 -106 915 -6 72 -20 247
-31 390 -11 143 -24 314 -29 380 -56 722 -64 2697 -15 3735 26 553 27 580 38
580 5 0 43 -26 85 -57z"/>
<path d="M54655 85180 c-233 -14 -727 -82 -1280 -176 -115 -20 -235 -39 -265
-44 -30 -4 -95 -15 -145 -24 -49 -9 -391 -66 -760 -126 -368 -61 -737 -122
-820 -136 -82 -14 -175 -29 -205 -34 -30 -4 -111 -18 -180 -30 -69 -12 -152
-26 -185 -31 -143 -21 -598 -97 -755 -124 -47 -9 -166 -29 -265 -45 -466 -76
-737 -121 -816 -136 -98 -18 -90 1 -63 -149 7 -44 72 -435 144 -870 72 -434
143 -866 159 -960 16 -93 37 -220 47 -282 17 -104 20 -112 39 -108 11 3 133
23 270 45 138 22 264 43 280 46 17 2 96 16 178 29 81 14 213 36 295 50 81 13
161 27 177 30 48 8 1930 319 2395 395 234 39 463 77 510 85 136 23 386 65 510
85 186 31 824 156 965 190 72 17 168 40 215 51 85 21 298 89 355 114 17 7 71
30 120 50 228 93 489 240 675 381 624 470 694 1020 174 1374 -108 74 -275 154
-424 204 -138 45 -414 109 -530 121 -36 4 -74 9 -85 12 -26 6 -450 22 -540 21
-38 -1 -124 -4 -190 -8z"/>
<path d="M17999 80216 c-510 -66 -758 -309 -709 -697 110 -889 1579 -2330
3685 -3614 612 -374 1359 -765 2013 -1054 1539 -682 2860 -968 3532 -765 256
77 411 227 454 436 20 96 20 138 1 255 -56 344 -313 773 -769 1283 -107 119
-453 465 -566 565 -36 32 -83 75 -105 95 -706 642 -1881 1455 -2926 2023 -421
228 -852 444 -1149 577 -47 21 -114 51 -150 68 -207 95 -665 281 -940 380
-489 177 -996 318 -1406 392 -341 61 -743 84 -965 56z"/>
<path d="M95000 80223 c-19 -1 -87 -8 -150 -14 -740 -69 -1872 -432 -3005
-964 -123 -58 -626 -309 -732 -366 -324 -173 -783 -433 -908 -514 -27 -18
-102 -64 -165 -102 -487 -297 -1061 -695 -1510 -1047 -591 -464 -1138 -983
-1477 -1403 -518 -641 -689 -1162 -482 -1472 104 -155 302 -256 594 -302 119
-19 497 -16 675 5 448 54 950 173 1491 356 588 198 1196 456 1859 787 769 384
1441 779 2160 1270 1180 806 2173 1736 2579 2418 172 289 254 522 255 725 1
172 -40 277 -148 386 -133 133 -309 202 -598 233 -89 10 -354 13 -438 4z"/>
<path d="M17435 62039 c-1881 -58 -3556 -403 -4385 -904 -209 -127 -411 -308
-489 -438 -114 -192 -115 -387 -4 -576 50 -85 195 -236 307 -320 1217 -911
4810 -1304 7726 -845 1144 180 2052 483 2536 845 112 84 257 235 307 320 111
188 109 385 -4 576 -47 79 -195 231 -303 312 -912 683 -3246 1105 -5691 1030z"/>
<path d="M94585 62043 c-1084 -22 -2204 -156 -3085 -369 -695 -168 -1286 -410
-1625 -664 -393 -295 -491 -614 -285 -923 188 -281 628 -547 1262 -762 1828
-622 4917 -744 7218 -285 1061 212 1825 517 2203 879 280 269 328 533 147 804
-546 816 -3032 1378 -5835 1320z"/>
<path d="M65125 55664 c-22 -2 -98 -9 -170 -15 -264 -22 -589 -77 -878 -150
-1453 -365 -2696 -1294 -3437 -2569 -403 -694 -645 -1475 -709 -2289 -14 -172
-14 -597 -1 -772 162 -2098 1518 -3894 3518 -4660 465 -178 988 -300 1512
-351 180 -17 851 -18 1020 0 780 81 1466 282 2110 619 1682 880 2776 2525
2920 4392 13 175 13 600 -1 772 -147 1878 -1235 3511 -2929 4398 -614 321
-1291 522 -2040 607 -136 15 -806 28 -915 18z"/>
<path d="M52275 49904 c-294 -30 -506 -66 -715 -120 -1320 -343 -2377 -1304
-2861 -2601 -104 -280 -185 -613 -229 -943 -27 -197 -38 -659 -21 -865 107
-1301 773 -2454 1828 -3169 553 -374 1139 -593 1828 -683 111 -14 209 -18 475
-18 358 0 463 9 750 61 1253 230 2348 1054 2930 2204 227 451 360 884 432
1410 20 146 23 207 23 525 0 404 -12 525 -81 864 -219 1079 -849 2025 -1759
2640 -451 305 -975 524 -1497 626 -278 54 -412 67 -748 70 -173 1 -333 1 -355
-1z"/>
<path d="M42758 44889 c-338 -36 -689 -139 -993 -294 -289 -146 -506 -304
-736 -534 -458 -459 -737 -1021 -836 -1686 -14 -94 -18 -183 -18 -405 0 -314
14 -438 75 -688 259 -1061 1057 -1881 2085 -2142 265 -67 439 -90 701 -90 381
0 716 63 1060 200 873 348 1516 1097 1745 2034 59 242 73 372 73 681 1 292 -5
365 -50 590 -52 265 -126 482 -254 740 -151 306 -313 531 -559 775 -239 237
-469 401 -766 545 -308 150 -629 240 -974 275 -119 12 -439 11 -553 -1z"/>
<path d="M25865 44223 c-594 -28 -1465 -252 -2345 -603 -192 -77 -488 -201
-605 -255 -242 -111 -332 -153 -580 -276 -289 -142 -399 -199 -690 -359 -331
-181 -518 -292 -1050 -622 -128 -80 -577 -385 -756 -514 -617 -444 -1083 -835
-1529 -1283 -580 -583 -892 -1042 -1006 -1481 -27 -101 -25 -276 3 -366 69
-218 260 -352 599 -421 112 -23 569 -26 734 -5 705 90 1465 314 2425 715 1023
428 2255 1114 3215 1790 1548 1091 2548 2172 2690 2908 15 74 14 234 -1 294
-60 246 -287 405 -651 459 -100 15 -330 25 -453 19z"/>
<path d="M87180 44215 c-391 -54 -618 -209 -681 -465 -17 -73 -15 -227 5 -318
72 -325 309 -723 693 -1162 1319 -1509 4147 -3258 6368 -3940 110 -33 220 -67
245 -75 69 -21 360 -93 484 -120 582 -126 1103 -144 1414 -50 259 78 413 216
463 415 8 31 13 101 13 160 -7 850 -1506 2355 -3644 3662 -222 135 -551 326
-695 403 -49 26 -121 66 -160 88 -112 64 -713 366 -915 459 -1149 534 -2187
861 -2984 943 -178 18 -474 18 -606 0z"/>
<path d="M38633 31980 c-806 -112 -2068 -1331 -3267 -3155 -364 -554 -711
-1155 -1026 -1780 -682 -1353 -1101 -2603 -1181 -3525 -16 -185 -6 -504 20
-630 40 -200 97 -329 189 -431 109 -120 226 -171 397 -172 169 -1 320 40 540
148 345 168 713 452 1156 895 540 540 1060 1188 1595 1990 107 160 128 192
229 350 551 863 1101 1930 1458 2830 328 827 521 1524 593 2140 21 174 24 535
5 660 -53 367 -203 593 -438 663 -67 20 -192 28 -270 17z"/>
<path d="M74265 31974 c-281 -63 -443 -313 -485 -749 -46 -479 77 -1192 346
-2010 581 -1762 1739 -3813 2983 -5280 283 -334 689 -750 946 -969 531 -454
962 -678 1297 -677 162 1 266 36 366 126 316 284 346 1007 87 2030 -193 761
-531 1631 -994 2555 -225 450 -520 984 -715 1296 -28 46 -84 136 -123 201
-166 270 -405 628 -635 948 -214 299 -567 747 -792 1005 -390 447 -817 852
-1176 1117 -428 314 -840 466 -1105 407z"/>
<path d="M56910 26610 c-260 -49 -535 -329 -752 -765 -391 -783 -664 -2054
-767 -3570 -36 -525 -47 -1491 -23 -1975 99 -1945 440 -3457 959 -4244 66
-100 114 -158 202 -246 173 -171 290 -232 456 -234 177 -2 299 58 476 234 89
89 136 146 206 251 470 712 809 2097 928 3789 54 782 54 1703 -1 2490 -124
1791 -500 3244 -1010 3905 -80 105 -224 240 -305 288 -114 67 -261 98 -369 77z"/>
</g>
</svg>
